HIERARCHY
ROOT Hips
{
  OFFSET 196.326 95.9168 97.7182
  CHANNELS 6 Xposition Yposition Zposition Zrotation Xrotation Yrotation
  JOINT LeftUpLeg
  {
    OFFSET 8.64259 1.95398 -2.38835
    CHANNELS 3 Zrotation Xrotation Yrotation
    JOINT LeftLeg
    {
      OFFSET 43.7702 0 0
      CHANNELS 3 Zrotation Xrotation Yrotation
      JOINT LeftFoot
      {
        OFFSET 40.6238 0 0
        CHANNELS 3 Zrotation Xrotation Yrotation
        JOINT LeftToeBase
        {
          OFFSET 12.7242 0 0
          CHANNELS 3 Zrotation Xrotation Yrotation
          End Site
          {
            OFFSET 0 0 0
          }
        }
      }
    }
  }
  JOINT RightUpLeg
  {
    OFFSET -8.2249 1.95398 -2.59336
    CHANNELS 3 Zrotation Xrotation Yrotation
    JOINT RightLeg
    {
      OFFSET 43.5653 0 0
      CHANNELS 3 Zrotation Xrotation Yrotation
      JOINT RightFoot
      {
        OFFSET 40.6238 0 0
        CHANNELS 3 Zrotation Xrotation Yrotation
        JOINT RightToeBase
        {
          OFFSET 12.7242 0 0
          CHANNELS 3 Zrotation Xrotation Yrotation
          End Site
          {
            OFFSET 0 0 0
          }
        }
      }
    }
  }
  JOINT Spine
  {
    OFFSET 0.165834 0.87714 6.61349
    CHANNELS 3 Zrotation Xrotation Yrotation
    JOINT Spine1
    {
      OFFSET 7.38963 1.71661e-005 0
      CHANNELS 3 Zrotation Xrotation Yrotation
      JOINT Spine2
      {
        OFFSET 11.9445 1.14441e-005 0
        CHANNELS 3 Zrotation Xrotation Yrotation
        JOINT Spine3
        {
          OFFSET 14.7254 4.19617e-005 0
          CHANNELS 3 Zrotation Xrotation Yrotation
          JOINT Spine4
          {
            OFFSET 10.9679 0 0
            CHANNELS 3 Zrotation Xrotation Yrotation
            JOINT RightShoulder
            {
              OFFSET 2.46616 -1.6653 3.69651
              CHANNELS 3 Zrotation Xrotation Yrotation
              JOINT RightArm
              {
                OFFSET 13.0012 0 0
                CHANNELS 3 Zrotation Xrotation Yrotation
                JOINT RightForeArm
                {
                  OFFSET 28.7848 1.52588e-005 0
                  CHANNELS 3 Zrotation Xrotation Yrotation
                  JOINT RightHand
                  {
                    OFFSET 26.5688 1.52588e-005 0
                    CHANNELS 3 Zrotation Xrotation Yrotation
                    End Site
                    {
                      OFFSET 0 0 0
                    }
                  }
                }
              }
            }
            JOINT LeftShoulder
            {
              OFFSET 2.38034 -1.29275 -3.75231
              CHANNELS 3 Zrotation Xrotation Yrotation
              JOINT LeftArm
              {
                OFFSET 16.3182 6.10351e-005 0
                CHANNELS 3 Zrotation Xrotation Yrotation
                JOINT LeftForeArm
                {
                  OFFSET 27.0901 0 0
                  CHANNELS 3 Zrotation Xrotation Yrotation
                  JOINT LeftHand
                  {
                    OFFSET 24.5451 1.52588e-005 0
                    CHANNELS 3 Zrotation Xrotation Yrotation
                    End Site
                    {
                      OFFSET 0 0 0
                    }
                  }
                }
              }
            }
            JOINT Neck
            {
              OFFSET 5.0226 -0.0266342 0
              CHANNELS 3 Zrotation Xrotation Yrotation
              JOINT Head
              {
                OFFSET 6.69363 2.86102e-005 0
                CHANNELS 3 Zrotation Xrotation Yrotation
                End Site
                {
                  OFFSET 0 0 0
                }
              }
            }
          }
        }
      }
    }
  }
}
MOTION
Frames:	10
Frame Time:	0.0416667
-274.255 94.7192 -273.947 68.7449 7.14153 100.16 177.899 38.5792 104.932 -71.2026 38.7798 17.2604 140.064 31.8726 -35.8928 -12.8746 -38.4649 -12.1262 170.252 45.096 91.3009 -142.697 80.23 104.655 6.43779 -9.07631 -5.31384 -41.5449 -63.3492 68.3275 -5.04421 5.82126 -92.0871 15.1725 -11.0148 -2.53913 3.54725 -11.1157 -2.04614 -19.2798 -9.73902 -5.75896 0.732828 -9.73901 -5.75895 78.8796 -60.4823 -113.574 32.9096 -19.8258 61.6685 -140.139 -25.9527 -105.513 -85.9094 -9.09466 6.80695 -95.3427 -44.9075 69.1956 -28.634 7.15359 16.0749 19.7364 -11.2467 -110.725 32.6559 3.62254 7.3587 19.028 0.245173 -1.17185 -8.07808 0.548299 3.73283 
-271.561 95.1397 -270.268 73.0605 -7.31322 93.4054 -177.22 19.8257 100.999 -54.2649 31.013 11.585 137.959 41.2624 -24.293 -14.0798 -34.8828 -18.6589 170.193 40.9194 92.4725 -38.0778 16.1959 10.9731 65.5922 0.470666 0.426547 42.2578 5.63082 11.6571 -3.20858 6.67933 -91.3228 13.4873 -7.0068 -1.76016 1.83433 -7.07743 -1.44865 -20.8144 -6.15317 -3.79115 -0.801754 -6.1532 -3.79117 81.3598 -52.9772 -112.782 36.9953 -12.7399 54.6826 -152.557 -26.6891 -115.456 -84.5136 -14.4759 13.6567 -96.2752 -39.6691 65.8326 -28.371 5.99757 10.479 21.4403 -10.8353 -110.711 32.9856 3.60533 7.19384 21.3855 -0.652608 -3.12746 -4.07075 0.499521 5.25831 
-268.679 94.2137 -266.758 72.5093 -22.8849 81.5923 -175.52 4.96932 89.782 -37.824 28.2446 3.54011 98.9514 49.3531 16.8759 2.84148 -18.8805 -20.5448 -179.284 45.0107 89.0464 -24.3504 10.1412 1.49851 55.3393 0.979184 0.960416 31.5976 0.0747643 6.73151 -1.60335 6.82361 -90.3729 13.2315 -3.36221 -0.333457 1.56498 -3.37364 -0.184971 -21.0019 -3.10629 -1.32955 -0.989245 -3.10631 -1.32956 83.7915 -48.8805 -110.622 38.0599 -8.97104 49.5858 -158.625 -25.1003 -117.185 -72.9039 -14.6736 17.7916 -97.3276 -38.0197 63.4235 -28.5234 5.98748 9.09764 23.9901 -9.42483 -106.74 28.0015 3.56706 9.05082 22.0541 -0.435217 -1.68678 -2.29274 0.325684 4.87575 
-263.429 92.9858 -262.441 75.1715 -27.3406 78.9426 -175.753 2.19693 88.0309 -42.8945 21.8223 1.39132 55.9265 9.08777 23.3546 64.6865 29.6262 -19.3853 -178.152 43.8422 87.7613 -25.6133 6.84844 0.172595 54.4863 1.26127 1.18443 32.8916 0.474793 -2.77658 -1.14759 6.99069 -89.9006 12.8973 -2.23077 0.469811 1.22819 -2.20794 0.567571 -21.3224 -2.26877 -0.222708 -1.30978 -2.26877 -0.222718 83.9184 -50.3266 -109.944 35.1897 -7.91651 46.5867 -155.366 -25.9781 -116.278 -83.5371 -11.5274 9.85692 -98.3951 -37.9099 61.6097 -30.313 8.66912 9.04272 15.5306 -6.85174 -93.6055 29.0031 2.61857 5.34542 20.1983 -0.960546 -0.634014 -1.71204 -0.516128 4.86407 
-257.055 90.9438 -257.999 77.3867 -27.157 80.5228 -175.54 5.37215 90.7901 -50.9136 15.2889 1.36704 35.2659 -12.2453 4.62248 98.9284 51.1412 -27.2641 179.046 42.6343 89.398 -34.4573 13.7513 2.17255 59.5422 0.179602 0.306743 27.7375 -1.54035 20.1176 -1.02638 7.11897 -90.0844 12.6387 -2.07898 0.0752029 0.969378 -2.07366 0.166671 -21.5785 -2.00542 -0.553346 -1.56583 -2.00542 -0.553351 83.7038 -51.1936 -109.973 31.7041 -7.52751 41.8166 -150.938 -27.1462 -115.57 -90.5643 -7.84305 3.64483 -99.7049 -38.9811 59.9518 -31.3877 9.7238 9.18546 12.902 -1.57022 -80.9146 22.2744 1.15071 1.3073 17.1903 -1.52737 1.36533 0.44286 -1.60478 4.28897 
-250.521 89.052 -253.153 78.1905 -29.6508 82.6041 -174.448 13.6789 92.9531 -65.1204 14.27 0.995768 35.9654 -11.9624 3.74556 55.1302 31.5824 7.33675 177.632 40.7697 94.2892 -44.4791 13.4611 2.28702 72.5012 -3.151 -1.63424 26.2907 -1.80897 18.777 -0.610255 7.19088 -90.2985 12.4926 -1.35476 -0.446164 0.822345 -1.37309 -0.386098 -21.7169 -1.15803 -0.832737 -1.70427 -1.15802 -0.832738 82.1347 -52.5161 -111.824 29.0957 -8.9113 36.0511 -142.251 -31.0483 -112.357 -98.4127 -1.32376 -3.57169 -100.857 -40.0712 58.604 -32.9116 9.46599 9.98316 10.7079 2.34743 -67.1534 26.9572 1.51249 1.73214 14.7773 -2.31701 1.24233 2.82919 -2.19747 4.63146 
-244.387 87.504 -249.081 81.8962 -33.3371 88.1721 -173.885 21.3671 96.8911 -77.0032 16.0781 0.991224 37.9639 -11.2102 4.43099 44.6349 17.9461 2.06687 179.053 35.9375 100.624 -50.8343 15.2966 0.00745159 76.1501 -6.08653 -2.83273 34.6279 0.197686 15.8181 -0.0462719 7.72983 -90.7876 11.4057 -0.459332 -1.51929 -0.266113 -0.525743 -1.49761 -22.7936 0.0184402 -1.58708 -2.78096 0.0184318 -1.58709 81.2876 -50.7071 -113.723 27.6694 -9.13403 27.682 -134.474 -33.1955 -108.866 -99.8239 3.74625 -8.2862 -102.7 -42.7415 56.9754 -33.1687 7.71149 10.5307 7.0083 3.26188 -55.6288 29.3834 1.92303 2.71487 16.7642 -2.4639 3.44313 2.94331 -3.0942 3.31354 
-238.394 87.5089 -244.356 81.1537 -36.1514 86.2493 -172.246 30.6259 95.7357 -79.1101 14.1625 0.51785 41.4461 -8.83536 5.4449 53.8067 24.317 -9.49195 178.145 30.8736 99.7395 -51.6082 12.7351 0.207078 81.5223 -7.57227 -3.20354 35.9657 0.439443 15.582 0.415624 7.73774 -90.5655 11.4028 0.563019 -1.18487 -0.268561 0.51031 -1.20851 -22.8019 0.89308 -0.960903 -2.78924 0.893079 -0.960916 81.2757 -48.9593 -114.4 27.7486 -8.37517 20.1281 -122.176 -33.4102 -100.505 -97.6065 11.795 -15.937 -103.057 -43.2921 56.6862 -35.3188 6.67588 15.1218 3.66241 1.03654 -51.7625 30.3119 2.29353 3.74195 16.7732 -3.62335 3.89067 3.378 -4.4178 2.32055 
-231.811 88.87 -239.117 79.3697 -38.0502 83.1043 -169.873 37.7043 93.1525 -73.7476 11.0907 -0.209714 44.9567 -6.8028 6.41904 49.9414 23.2924 0.124885 178.438 24.1192 97.6176 -47.2958 10.7542 -0.377072 82.3439 -7.67355 -3.17295 39.2112 1.21266 19.4712 0.761112 7.52077 -90.2652 11.8369 1.38887 -0.676832 0.166556 1.35772 -0.737304 -22.3743 1.52805 -0.228051 -2.36166 1.52805 -0.228041 82.6765 -47.3274 -112.895 29.7399 -7.80448 15.1735 -98.121 -25.1334 -87.0002 -86.2079 25.8872 -34.4526 -101.265 -43.6651 59.5841 -38.3065 7.96984 20.9508 4.08499 1.54806 -54.4568 30.8167 2.38289 3.91648 14.4874 -5.38216 3.99804 4.53374 -6.12167 1.7576 
-224.573 91.274 -233.685 78.9644 -38.1386 82.2757 -170.025 40.2465 92.2128 -61.265 8.47815 -0.963231 47.1206 -5.46234 11.0345 54.946 26.3136 -6.50865 179.555 15.7538 96.0459 -40.0654 6.66295 -1.41858 73.8717 -5.50731 -2.6873 46.6728 2.85373 18.068 0.986206 7.39557 -90.1438 12.0881 1.89271 -0.494002 0.418382 1.86912 -0.576858 -22.1279 1.95364 0.0978929 -2.11527 1.95363 0.0978904 84.0538 -46.0661 -111.221 31.3582 -8.35153 11.5015 -72.995 -11.6661 -84.7292 -63.5054 30.755 -55.4551 -98.7089 -43.1354 63.3081 -41.6305 9.99445 25.8285 4.33907 1.81493 -57.5712 30.1791 2.48262 4.42753 13.3216 -7.32758 4.33035 4.61347 -8.15995 0.825861 
